# xmcd
#
# Track frame offsets: 
#        150
#        23882
#        53094
#        81696
#        104697
#        129812
#        161887
#        196847
#        233052
#        265879
#
# Disc length: 3794 seconds
#
# Revision: 0
# Processed by: cddbd v1.4PL0 Copyright (c) Steve Scherf et al.
# Submitted via: ExactAudioCopy v0.95a3
#
DISCID=850ed00a
DTITLE=The Lee Sankey Group - My Day is Just Beginning
DYEAR=1900
DGENRE=Blues
TTITLE0=Drinking Game
TTITLE1=Only My Baby
TTITLE2=Women and Trouble
TTITLE3=Shout It On Out
TTITLE4=Office Politics
TTITLE5=Stone In My Shoe
TTITLE6=S'picious Woman
TTITLE7=My Day Is Just Beginning
TTITLE8=I Don't Like My Way Of Living
TTITLE9=Where We Going To
EXTD=
EXTT0=
EXTT1=
EXTT2=
EXTT3=
EXTT4=
EXTT5=
EXTT6=
EXTT7=
EXTT8=
EXTT9=
PLAYORDER=
